<svg width="300" height="160" viewBox="0 0 300 160" xmlns="http://www.w3.org/2000/svg">
  <rect width="300" height="160" fill="#FAF6F0" />
  <line x1="0" y1="0" x2="300" y2="0" stroke="#8D4908" stroke-width="1.5" stroke-opacity="0.4" />
  <line x1="0" y1="80" x2="300" y2="80" stroke="#8D4908" stroke-width="1.5" stroke-opacity="0.4" />
  <line x1="0" y1="160" x2="300" y2="160" stroke="#8D4908" stroke-width="1.5" stroke-opacity="0.4" />
  <line x1="0" y1="0" x2="0" y2="80" stroke="#8D4908" stroke-width="1.5" stroke-opacity="0.4" />
  <line x1="300" y1="0" x2="300" y2="80" stroke="#8D4908" stroke-width="1.5" stroke-opacity="0.4" />
  <line x1="150" y1="80" x2="150" y2="160" stroke="#8D4908" stroke-width="1.5" stroke-opacity="0.4" />
  <path d="M 0 15 Q 75 22 150 18 T 300 22" fill="none" stroke="#8D4908" stroke-width="1" stroke-opacity="0.2" />
  <path d="M 0 35 Q 150 30 300 38" fill="none" stroke="#8D4908" stroke-width="1" stroke-opacity="0.15" />
  <path d="M 0 60 Q 75 65 150 58 T 300 63" fill="none" stroke="#8D4908" stroke-width="1" stroke-opacity="0.2" />
  <path d="M 0 95 Q 75 102 150 98 T 300 102" fill="none" stroke="#8D4908" stroke-width="1" stroke-opacity="0.2" />
  <path d="M 0 120 Q 150 115 300 123" fill="none" stroke="#8D4908" stroke-width="1" stroke-opacity="0.15" />
  <path d="M 0 145 Q 75 138 150 142 T 300 138" fill="none" stroke="#8D4908" stroke-width="1" stroke-opacity="0.2" />
</svg>
